<?xml version="1.0" encoding="utf-8"?>
<!-- Svg Vector Icons : http://www.sfont.cn -->
<!DOCTYPE svg PUBLIC "-//W3C//DTD SVG 1.1//EN" "http://www.w3.org/Graphics/SVG/1.1/DTD/svg11.dtd">
<svg width="130" height="130" version="1.1" xmlns="http://www.w3.org/2000/svg" xmlns:xlink="http://www.w3.org/1999/xlink" x="0px" y="0px" viewBox="0 0 1000 1000" enable-background="new 0 0 1000 1000" xml:space="preserve">
<metadata> Svg Vector Icons : http://www.sfont.cn </metadata>
<g><path d="M223,500c0,104.1,57.7,194.9,142.8,242.2c-0.5,2.1-0.8,4.2-0.8,6.4v142c0,15.7,12.7,28.4,28.4,28.4c15.7,0,28.4-12.7,28.4-28.4V765.7c16,4.7,32.6,8.1,49.7,9.8v186.1c0,15.7,12.7,28.4,28.4,28.4c15.7,0,28.4-12.7,28.4-28.4V775.5c17.1-1.7,33.7-5.1,49.7-9.8v124.9c0,15.7,12.7,28.4,28.4,28.4s28.4-12.7,28.4-28.4v-142c0-2.2-0.3-4.3-0.8-6.4C719.2,694.9,777,604.1,777,500c0-15.7-12.7-28.4-28.4-28.4c-15.6,0-31,1.4-45.9,3.9C748.7,426,777,359.7,777,287c0-15.7-12.7-28.4-28.4-28.4c-62.3,0-119.8,20.7-166.1,55.5c38.1-99.1,17.4-215.9-62.4-295.7C509,7.2,491,7.2,479.9,18.3c-52.3,52.3-81.1,121.9-81.1,195.8c0,34.7,6.4,68.3,18.5,99.7c-46.3-34.7-103.7-55.3-165.8-55.3c-15.7,0-28.4,12.7-28.4,28.4c0,72.8,28.3,139,74.3,188.5c-14.9-2.5-30.3-3.9-45.9-3.9C235.8,471.6,223,484.3,223,500L223,500z M500,563.9c0,0,0.1,0,0.1,0c0,0,0,0,0,0c15.6,0,30.8-1.4,45.7-3.9c-18.3,19.7-33.9,42.1-45.9,66.4c-12-24.4-27.6-46.7-45.9-66.4C469.1,562.6,484.4,563.9,500,563.9L500,563.9z M530.5,718C544,621,621,544,718,530.5C704.5,627.5,627.5,704.5,530.5,718z M718,317.5c-13.5,97-90.5,174-187.5,187.5C544,408,621,331,718,317.5z M500,81.5c59.1,78.2,59.1,187.1,0,265.2c-28.8-38-44.4-84.1-44.4-132.6C455.6,165.7,471.2,119.5,500,81.5L500,81.5z M469.5,505c-97-13.5-174-90.5-187.5-187.5C379,331,456,408,469.5,505L469.5,505z M469.5,718c-97-13.5-174-90.5-187.5-187.5C379,544,456,621,469.5,718L469.5,718z"/></g>
</svg>
