<?xml version="1.0" encoding="utf-8"?>
<!-- Svg Vector Icons : http://www.sfont.cn -->
<!DOCTYPE svg PUBLIC "-//W3C//DTD SVG 1.1//EN" "http://www.w3.org/Graphics/SVG/1.1/DTD/svg11.dtd">
<svg width="130" height="130" version="1.1" xmlns="http://www.w3.org/2000/svg" xmlns:xlink="http://www.w3.org/1999/xlink" x="0px" y="0px" viewBox="0 0 1000 1000" enable-background="new 0 0 1000 1000" xml:space="preserve">
<metadata> Svg Vector Icons : http://www.sfont.cn </metadata>
<g><g transform="translate(0.000000,511.000000) scale(0.100000,-0.100000)"><path d="M2542.4,4937.9c-22.8-154.4-20.2-162,86.1-377.1c118.9-243,129.1-286,68.3-308.8c-53.1-20.3-32.9-45.6-172.1,230.3c-111.4,227.8-121.5,237.9-268.3,311.3c-83.5,43-151.9,68.3-151.9,58.2c0-12.7-10.1-86-25.3-167c-22.8-146.8-22.8-151.9,91.1-379.6c108.8-215.1,113.9-232.9,70.9-263.2c-25.3-17.7-60.7-32.9-78.5-32.9c-17.7,0-83.5,103.8-146.8,227.8c-108.8,217.7-121.5,232.9-255.6,298.7c-159.4,78.5-172.1,70.9-197.4-124c-15.2-111.4-5.1-144.3,101.2-354.3c91.1-182.2,108.8-237.9,81-253.1c-75.9-50.6-111.4-17.7-207.5,194.9c-96.2,210.1-103.8,217.7-250.6,293.6c-172.1,86-179.7,81-205-108.8c-15.2-108.8-5.1-146.8,86-341.7c113.9-245.5,116.4-253.1,60.7-273.3c-70.9-27.8-78.5-17.7-177.2,202.5c-96.2,210.1-103.8,220.2-248,293.6c-81,40.5-151.9,68.3-156.9,63.3c-5.1-5.1-22.8-75.9-38-159.5c-27.8-146.8-27.8-149.3,81-372.1c93.6-187.3,103.8-225.3,73.4-245.5c-70.9-45.6-88.6-25.3-197.4,189.8c-101.2,202.5-113.9,217.7-255.6,288.5l-149.3,75.9l-30.4-159.4L100,3586.3l103.8-205c58.2-113.9,103.8-215.1,103.8-227.8c0-12.7-40.5-40.5-88.6-63.3c-73.4-35.4-88.6-55.7-88.6-119c0-258.2,288.5-536.6,645.4-625.2c245.5-60.7,399.9-27.8,845.3,179.7c199.9,93.7,364.5,167,367,162c5.1-5.1,761.8-1624.9,1685.6-3601.6C4595-2890.5,5377.1-4560.9,5410-4626.7l60.7-119l169.6,78.5c96.2,40.5,174.6,78.5,179.7,81c2.5,5-632.8,1371.8-1414.8,3042.2C2385.5,2773.9,2357.6,2834.6,2357.6,2854.9c0,7.6,164.5,93.7,364.5,189.8c420.1,199.9,559.4,313.8,673.2,544.2c139.2,283.5,134.1,569.5-15.2,809.9l-88.6,141.7l-75.9-40.5c-40.5-20.2-83.5-30.4-96.2-25.3c-12.7,7.6-70.9,116.4-129.1,237.9c-103.8,220.2-108.8,225.3-265.8,303.7l-156.9,78.5L2542.4,4937.9z"/><path d="M4972.2,4208.9c-189.8-55.7-278.4-217.7-427.7-804.9c-48.1-184.8-93.6-349.3-101.2-359.4c-7.6-12.7-40.5-22.8-70.9-22.8c-32.9,0-199.9-22.8-372.1-53.1c-539.1-91.1-928.9-240.4-1080.7-412.5c-311.3-356.9,116.4-693.5,1093.4-863.1c124-20.2,230.3-43,237.9-48.1c5.1-7.6-32.9-50.6-86-96.2c-134.1-116.4-212.6-298.7-212.6-491c0-263.2,98.7-453,303.7-587.2c98.7-63.3,121.5-98.7,162-220.2c73.4-235.4,255.6-653,367-845.4c230.3-394.8,478.4-622.6,769.4-713.7c149.3-45.6,217.7-53.1,506.2-43c298.7,7.6,349.3,17.7,483.4,78.4c372,172.1,777,769.4,1004.8,1480.6c53.2,167,68.3,189.8,177.2,260.7c364.5,232.8,410,797.3,88.6,1080.7c-53.1,45.6-91.1,88.6-86,96.2c7.6,5.1,113.9,27.8,237.9,48.1c711.2,124,1141.5,336.6,1189.6,587.2c60.8,321.4-417.6,574.5-1323.7,706.1c-164.5,25.3-306.2,50.6-316.4,58.2c-10.1,7.6-58.2,154.4-108.8,326.5c-134.1,460.6-187.3,589.7-288.5,691c-151.9,154.4-253.1,169.6-645.4,103.8c-420.1-70.9-607.4-70.9-1002.3,7.6C5129.1,4241.9,5093.7,4244.4,4972.2,4208.9z M5723.9,1564.1c539.1-10.1,977-5.1,1199.7,12.7c245.5,17.7,361.9,20.3,384.7,0c17.7-12.7,38-70.9,48.1-124c12.7-81,32.9-106.3,108.8-144.3c134.1-65.8,200-205,159.5-339.2c-38-121.5-116.4-199.9-207.5-199.9c-35.4,0-78.5-15.2-91.1-30.4c-15.2-17.7-73.4-174.6-131.6-349.3c-220.2-655.5-523.9-1149.1-799.8-1288.3c-113.9-60.7-154.4-65.8-417.6-65.8c-349.3,0-425.2,30.4-635.3,260.7c-227.8,248-392.3,569.5-592.2,1156.7c-53.2,154.4-108.8,286-124,296.1c-15.2,10.1-53.2,20.2-83.5,20.2c-159.4,0-263.2,253.1-174.6,425.2c22.8,45.6,50.6,81,63.3,81c10.1,0,81,75.9,154.4,167.1c124,154.4,141.7,164.5,212.6,151.9C4840.6,1584.3,5258.2,1571.7,5723.9,1564.1z"/><path d="M4812.7-1387.1c-119-27.8-217.7-53.1-222.7-58.2c-2.5-2.5,336.6-731.4,754.2-1622.4L6103.5-4685l-197.4-93.6l-194.9-93.7h2095.7l2093.1-2.5v248.1c-2.5,797.3-245.5,1447.7-769.4,2060.2c-496.1,582.1-1280.7,1030.1-2095.7,1199.7l-220.2,45.6l-197.4-189.8c-273.3-260.7-387.2-313.9-678.3-313.9c-192.4,0-248,10.1-349.3,60.8c-134.2,70.9-329,250.6-387.3,362C5156.9-1316.2,5113.9-1313.7,4812.7-1387.1z"/><path d="M3623.1-1875.6c-270.8-169.6-473.3-336.6-739.1-617.6c-263.2-278.4-458.1-574.5-602.4-906.1c-159.4-372.1-205-597.3-220.2-1063l-15.2-412.6h1622.4h1622.4l-156.9,336.6c-88.6,182.2-415.1,883.3-728.9,1554c-311.3,670.7-572,1222.4-579.6,1222.4S3726.9-1812.3,3623.1-1875.6z"/></g></g>
</svg>
