<?xml version="1.0" encoding="utf-8"?>
<!-- Svg Vector Icons : http://www.sfont.cn -->
<!DOCTYPE svg PUBLIC "-//W3C//DTD SVG 1.1//EN" "http://www.w3.org/Graphics/SVG/1.1/DTD/svg11.dtd">
<svg width="130" height="130" version="1.1" xmlns="http://www.w3.org/2000/svg" xmlns:xlink="http://www.w3.org/1999/xlink" x="0px" y="0px" viewBox="0 0 1000 1000" enable-background="new 0 0 1000 1000" xml:space="preserve">
<metadata> Svg Vector Icons : http://www.sfont.cn </metadata>
<g><g transform="translate(0.000000,511.000000) scale(0.100000,-0.100000)"><path d="M3625.3,3549.9C2865.8,2676.1,2217.9,1935.6,2187.9,1903l-54.4-62.6h2874.7h2877.4L6478.2,3454.6c-773.1,884.7-1418.3,1627.9-1437.3,1646.9C5013.6,5131.5,4738.7,4829.4,3625.3,3549.9z"/><path d="M2822.2-1399.1V-4448h-585.3h-585.3v326.7v326.7h544.4h544.4v217.8v217.8h-544.4h-544.4v217.8v217.8h544.4h544.4v217.8v217.8h-544.4h-544.4v326.7v326.7h-217.8h-217.8v-326.7V-2488H998.3H780.6v-217.8v-217.8h217.8h217.8v-217.8v-217.8H998.3H780.6v-217.8v-217.8h217.8h217.8v-326.7V-4448H658.1H100v-217.8v-217.8h4900h4900v217.8v217.8h-476.4h-476.4v326.7v326.7H9165h217.8v217.8v217.8H9165h-217.8v217.8v217.8H9165h217.8v217.8v217.8H9165h-217.8v326.7v326.7h-217.8h-217.8v-326.7V-2488h-544.4h-544.5v-217.8v-217.8h544.5h544.4v-217.8v-217.8h-544.4h-544.5v-217.8v-217.8h544.5h544.4v-326.7V-4448h-653.3H7205v3048.9v3048.9H5013.6H2822.2V-1399.1z M6415.6-3032.4V-4448h-372.9h-375.7l-313.1,408.3c-168.8,225.9-318.5,408.3-326.7,408.3s-157.9-182.4-326.7-408.3L4387.5-4448h-400.2h-402.9v1415.6v1415.6H5000h1415.6V-3032.4z"/><path d="M4401.1-2063.3c0-27.2,604.3-792.2,626.1-792.2c21.8,0,626.1,764.9,626.1,792.2c0,5.4-280.4,10.9-626.1,10.9C4684.2-2052.4,4401.1-2057.9,4401.1-2063.3z"/><path d="M4020-3250.2c0-784,5.4-931,35.4-898.3c106.2,114.3,672.4,873.8,672.4,898.3c0,24.5-566.2,784-672.4,898.3C4025.4-2319.2,4020-2466.2,4020-3250.2z"/><path d="M5653.3-2792.9c-171.5-225.9-315.8-427.4-321.2-446.5c-5.4-19,138.8-225.9,318.5-460l329.4-427.4v873.8c0,481.8-2.7,873.8-5.4,871.1C5969.1-2381.8,5824.8-2566.9,5653.3-2792.9z"/></g></g>
</svg>
