<?xml version="1.0" encoding="utf-8"?>
<!-- Svg Vector Icons : http://www.sfont.cn -->
<!DOCTYPE svg PUBLIC "-//W3C//DTD SVG 1.1//EN" "http://www.w3.org/Graphics/SVG/1.1/DTD/svg11.dtd">
<svg width="130" height="130" version="1.1" xmlns="http://www.w3.org/2000/svg" xmlns:xlink="http://www.w3.org/1999/xlink" x="0px" y="0px" viewBox="0 0 1000 1000" enable-background="new 0 0 1000 1000" xml:space="preserve">
<metadata> Svg Vector Icons : http://www.sfont.cn </metadata>
<g><g transform="translate(0.000000,511.000000) scale(0.100000,-0.100000)"><path d="M7594.8,3958c-121.5-59.7-123.5-76.2-119.4-728.8l6.2-588.8l49.4-53.5c94.7-98.8,253.2-88.5,325.3,22.7c32.9,51.5,37.1,107,30.9,652.6c-4.1,356.2-14.4,611.4-26.8,634.1c-18.5,35-133.8,98.8-177.1,98.8C7675.1,3995.1,7634,3978.6,7594.8,3958z"/><path d="M8764.2,3750.1c-28.8-22.6-164.7-242.9-304.7-490c-292.3-514.7-306.7-562-189.4-667c88.5-80.3,187.4-80.3,269.7-2.1c32.9,30.9,172.9,255.3,310.8,498.2c228.5,405.6,249.1,448.8,238.8,525C9070.9,3770.7,8887.7,3846.9,8764.2,3750.1z"/><path d="M1857.3,3634.8c-98.8-43.2-142-144.1-111.2-261.5c14.4-47.3,80.3-306.7,146.2-572.3c105-413.8,129.7-490,175-529.1c125.6-109.1,339.7-18.5,339.7,142.1c0,76.2-183.2,839.9-249.1,1041.7C2100.2,3630.7,1993.1,3692.5,1857.3,3634.8z"/><path d="M6654,3184c-86.5-39.1-137.9-137.9-119.4-236.7c18.5-111.2,234.7-881.1,282.1-1006.7c57.6-156.5,170.9-205.9,304.7-137.9c70,37.1,102.9,88.5,102.9,164.7c0,30.9-55.6,255.3-125.6,500.3c-67.9,247-137.9,496.1-154.4,553.8C6901.1,3175.7,6785.8,3241.6,6654,3184z"/><path d="M597.4,3107.8c-24.7-22.6-55.6-67.9-65.9-96.7c-39.1-100.9-4.1-160.6,183.2-317.1c98.8-82.3,275.9-232.6,395.3-335.6c345.9-296.5,347.9-298.5,422-298.5c140,0,249.1,158.5,195.6,286.2c-22.6,53.5-498.2,479.7-792.6,708.2C790.9,3167.5,679.7,3184,597.4,3107.8z"/><path d="M2909.3,3111.9c-84.4-51.5-105-121.5-119.4-415.9c-6.2-129.7-26.8-372.6-43.2-539.4c-28.8-275.9-28.8-306.8,0-366.5c67.9-129.7,275.9-144.1,354.1-26.8c41.2,63.8,105,646.4,113.2,1021.1c6.2,234.7,4.1,242.9-47.4,294.4C3096.6,3151,2991.6,3163.4,2909.3,3111.9z"/><path d="M9509.4,2665.2c-84.4-41.2-317.1-144.1-514.7-228.5c-461.2-195.6-531.1-265.6-442.6-438.5c76.2-148.2,170.9-140,642.3,63.8c535.3,230.6,652.6,292.3,681.4,358.2c41.2,88.5,28.8,168.8-30.9,236.7C9756.5,2751.6,9690.6,2753.7,9509.4,2665.2z"/><path d="M5894.4,2337.8c-70-37.1-111.2-105-111.2-189.4c0-88.5,257.3-909.9,337.6-1080.8c80.3-168.8,325.3-158.5,382.9,16.5c22.6,63.8,12.3,109.1-111.2,477.6c-72.1,222.3-152.3,471.5-175,551.7C6153.8,2329.6,6038.5,2409.9,5894.4,2337.8z"/><path d="M7893.4,2243.1c-123.5-109.1-566.1-634.1-839.9-996.4C6030.2-112,5241.8-1728.1,4900-3169.2c-88.5-376.7-94.7-430.3-45.3-506.4c57.7-94.7,164.7-125.6,263.5-76.2c90.6,43.2,100.9,70,181.2,424.1C5550.6-2218,6170.2-818.1,6903.1,299.7c352,535.3,704.1,998.5,1122,1472c193.5,220.3,207.9,242.9,207.9,323.2c0,115.3-63.8,189.4-177,205.9C7981.9,2311.1,7963.4,2302.8,7893.4,2243.1z"/><path d="M3623.6,2127.8c-43.2-45.3-63.8-96.8-92.6-242.9c-20.6-100.9-78.2-352-129.7-553.8c-57.6-234.7-86.5-387-78.2-422c18.5-72.1,86.5-142,154.4-156.5c72.1-16.5,195.6,32.9,224.4,90.6c37.1,67.9,249.1,947,263.5,1087c12.3,121.5,10.3,129.7-51.5,189.4C3827.4,2206.1,3706,2208.1,3623.6,2127.8z"/><path d="M1838.7,1928.2c-74.1-74.1-88.5-144.1-47.3-222.3c12.4-24.7,123.5-160.6,242.9-302.6c271.8-319.1,420-514.7,636.1-840c549.7-821.4,965.5-1751.9,1167.3-2606.3c49.4-205.9,65.9-249.1,117.3-292.3c80.3-67.9,179.1-67.9,259.4,0c32.9,28.8,67.9,74.1,74.1,102.9c20.6,78.2-78.2,485.8-214.1,895.5C3708-227.3,3106.9,816.5,2297.8,1747C2057,2024.9,1970.5,2059.9,1838.7,1928.2z"/><path d="M160.9,1876.7c-111.2-113.2-63.8-300.6,90.6-350c86.5-26.8,335.6-72.1,761.7-135.9c308.8-47.3,352-49.4,413.8-22.7c82.3,35,119.4,92.6,119.4,189.4c0,88.5-45.3,160.6-121.5,189.4c-30.9,12.4-168.8,37.1-304.7,55.6c-135.9,18.5-368.5,55.6-518.8,84.4C255.6,1950.8,235,1948.7,160.9,1876.7z"/><path d="M9136.8,1555.5c-6.2-4.1-240.9-43.2-525-82.3c-282-41.2-527-78.2-545.5-84.4c-70-20.6-131.8-111.2-131.8-197.6c0-109.1,96.8-201.7,212-201.7c84.4,0,868.8,111.2,1031.4,146.2c240.8,51.5,288.2,327.3,70,411.7C9192.4,1567.9,9151.2,1572,9136.8,1555.5z"/><path d="M5270.6,1368.2c-26.8-18.5-59.7-63.8-76.2-100.9c-24.7-61.8-22.7-88.5,32.9-282C5338.5,592.1,5513.5,98,5558.8,48.6c123.5-129.7,347.9-45.3,352.1,133.8c2.1,45.3-247,850.2-339.7,1101.4C5534.1,1388.8,5367.3,1436.1,5270.6,1368.2z"/><path d="M4352.4,1110.8c-55.6-26.8-76.2-59.7-144.1-236.7c-32.9-78.2-129.7-302.6-220.3-496.1c-96.7-216.2-160.6-380.9-160.6-422c2.1-105,98.8-201.7,205.9-201.7c100.9,0,158.5,63.8,265.6,286.2c129.7,275.9,317,710.2,350,811.1c32.9,94.7,2.1,201.8-70,249.1C4523.3,1137.6,4416.2,1141.7,4352.4,1110.8z"/><path d="M1470.2,989.4c-113.2-8.2-329.4-16.5-479.7-18.5c-294.4-2.1-385-24.7-444.7-107.1c-57.6-82.3-43.2-177.1,39.1-259.4l72.1-72.1l387,14.4c212.1,6.2,481.7,20.6,599.1,30.9c191.5,16.5,218.2,22.7,271.8,74.1c78.2,74.1,84.4,203.8,12.4,288.2C1871.7,1005.9,1789.3,1014.1,1470.2,989.4z"/><path d="M8336,639.4c-39.1-10.3-242.9-41.2-452.9-72.1c-210-28.8-417.9-57.6-461.2-63.8c-162.6-24.7-240.9-172.9-166.7-315c55.6-109.1,117.3-117.3,500.3-65.9c459.1,61.8,774.1,117.3,825.5,146.2c119.4,61.8,129.7,247,20.6,337.6C8535.7,662.1,8469.8,670.3,8336,639.4z"/><path d="M4823.8,312.1c-67.9-28.8-131.8-125.6-131.8-197.6c0-37.1,55.6-240.9,123.5-455c224.4-708.2,245-749.4,401.4-749.4c63.8,0,100.9,12.3,140,49.4c94.7,88.5,90.6,123.5-53.5,562c-74.1,224.4-154.4,473.5-177,553.8c-24.7,82.4-63.8,164.7-90.6,189.4C4980.3,316.2,4885.6,336.8,4823.8,312.1z"/><path d="M2116.7,268.8c-51.5-8.2-255.3-30.9-452.9-49.4c-475.6-45.3-479.7-47.4-541.4-109.1c-61.8-61.8-74.1-193.5-22.6-265.6c61.8-90.6,115.3-96.8,578.5-49.4c560,55.6,687.6,76.2,749.4,121.5C2546.9,3.3,2555.2,145.3,2444,238C2378.1,293.6,2304,299.7,2116.7,268.8z"/><path d="M7872.8-266.4c-45.3-10.3-253.2-41.2-463.2-70c-210-30.9-409.7-59.7-444.7-63.8C6864-416.7,6792-503.2,6792-604c0-100.9,37.1-162.6,119.4-195.6c49.4-20.6,129.7-16.5,450.9,26.8c621.7,84.4,747.3,111.2,813.2,179.1c127.6,127.6,35,350-142.1,345.9C7990.1-249.9,7918.1-258.2,7872.8-266.4z"/><path d="M2571.6-484.6c-84.4-16.5-321.2-51.5-525-80.3c-360.3-47.3-372.6-51.5-426.2-113.2c-98.8-109.1-57.6-277.9,82.3-331.4c86.5-32.9,1138.5,119.4,1227,179.1c127.6,82.3,119.4,282-10.3,350C2851.6-445.5,2779.6-447.6,2571.6-484.6z"/><path d="M7448.7-1159.9c-4.1-4.1-216.2-37.1-471.5-72.1c-255.3-37.1-485.8-70-510.5-76.2c-191.5-41.2-201.7-329.4-14.4-399.4c84.4-30.9,1130.2,121.5,1220.8,179.1c61.8,37.1,109.1,148.2,92.6,214.1c-6.2,26.8-35,74.1-63.8,107.1c-43.3,45.3-70,55.6-148.2,55.6C7500.2-1151.7,7452.8-1155.8,7448.7-1159.9z"/></g></g>
</svg>
